<?xml version="1.0" encoding="utf-8"?>
<!-- Generator: Adobe Illustrator 13.0.0, SVG Export Plug-In . SVG Version: 6.00 Build 14948)  -->
<svg version="1.2" baseProfile="tiny" id="Layer_1" xmlns="http://www.w3.org/2000/svg" xmlns:xlink="http://www.w3.org/1999/xlink"
	 x="0px" y="0px" width="34.417px" height="40.5px" viewBox="0 0 34.417 40.5" xml:space="preserve">
<g>
	<g>
		<g>
			<g>
				<rect x="13.442" y="14.091" fill="#231F20" width="0.899" height="7.669"/>
				<polygon fill="#231F20" points="20.567,26.647 19.931,27.18 13.442,21.756 14.079,21.225 				"/>
			</g>
			<polygon fill="#231F20" points="14.338,14.089 13.703,14.621 10.587,12.018 11.224,11.486 			"/>
		</g>
		<g>
			<g>
				<rect x="19.71" y="14.091" fill="#231F20" width="0.899" height="7.669"/>
				<polygon fill="#231F20" points="13.485,26.647 14.121,27.18 20.609,21.756 19.973,21.225 				"/>
			</g>
			<polygon fill="#231F20" points="19.713,14.089 20.349,14.621 23.465,12.018 22.828,11.486 			"/>
		</g>
		<polygon fill="#231F20" points="20,21.465 17.034,23.913 14.067,21.465 		"/>
	</g>
	<g>
		<g>
			<g>
				<rect x="9.77" y="16.045" fill="#231F20" width="0.899" height="7.67"/>
				<polygon fill="#231F20" points="17.665,29.251 17.029,29.783 9.77,23.71 10.406,23.179 				"/>
			</g>
			<polygon fill="#231F20" points="10.666,16.043 10.029,16.575 6.915,13.972 7.55,13.44 			"/>
		</g>
		<g>
			<g>
				<rect x="23.382" y="16.045" fill="#231F20" width="0.899" height="7.67"/>
				<polygon fill="#231F20" points="16.405,29.241 17.041,29.773 24.281,23.71 23.646,23.179 				"/>
			</g>
			<polygon fill="#231F20" points="23.386,16.043 24.022,16.575 27.137,13.972 26.501,13.44 			"/>
		</g>
	</g>
	<g>
		<polygon fill="#231F20" points="26.453,5.411 27.278,5.484 27.641,9.528 26.814,9.455 		"/>
		<polygon fill="#231F20" points="27.351,6.308 27.276,5.482 23.232,5.12 23.307,5.946 		"/>
	</g>
	<g>
		<polygon fill="#231F20" points="7.645,5.411 6.819,5.484 6.458,9.528 7.283,9.455 		"/>
		<polygon fill="#231F20" points="6.747,6.308 6.821,5.482 10.865,5.12 10.791,5.946 		"/>
	</g>
	<g>
		<path fill="#231F20" d="M17.239,0.378C7.95,0.378,0.42,5.008,0.42,16.054s16.819,24.324,16.819,24.324S34.059,27.1,34.059,16.054
			S26.527,0.378,17.239,0.378L17.239,0.378z M17.239,39.167c-1.29-1.074-4.528-3.873-7.729-7.455
			c-2.392-2.676-4.293-5.256-5.652-7.67c-1.659-2.948-2.5-5.635-2.5-7.988c0-2.542,0.419-4.81,1.246-6.74
			c0.766-1.787,1.891-3.308,3.343-4.52c2.729-2.275,6.633-3.478,11.293-3.478c4.659,0,8.563,1.203,11.292,3.478
			c1.453,1.211,2.578,2.732,3.344,4.52c0.827,1.931,1.246,4.198,1.246,6.74c0,2.353-0.841,5.04-2.501,7.988
			c-1.358,2.414-3.26,4.994-5.652,7.67C21.768,35.294,18.528,38.093,17.239,39.167L17.239,39.167z"/>
	</g>
</g>
</svg>
